<?xml version="1.0" encoding="utf-8"?>
<!-- Generator: Adobe Illustrator 25.0.1, SVG Export Plug-In . SVG Version: 6.00 Build 0)  -->
<svg version="1.2" baseProfile="tiny" id="레이어_1"
	 xmlns="http://www.w3.org/2000/svg" xmlns:xlink="http://www.w3.org/1999/xlink" x="0px" y="0px" viewBox="0 0 2048 828.97"
	 overflow="visible" xml:space="preserve">
<g>
	<g>
		<path fill="#FFFFFF" d="M806.5049,422.8628c0,165.0743-133.8326,298.895-298.895,298.895
			c-165.0783,0-298.895-133.8207-298.895-298.895c0-165.0664,133.8167-298.8871,298.895-298.8871
			C672.6722,123.9758,806.5049,257.7964,806.5049,422.8628z"/>
		<g>
			<g>
				<g>
					<g>
						<g>
							<g>
								<path fill="#003764" d="M647.8981,402.0297c-47.5423-32.3107-108.409-19.1535-140.4124,29.4268
									c-26.6201,40.6051-66.9108,45.6573-82.4305,45.6573c-50.9046,0-85.6368-35.7813-95.9602-72.7869
									c0,0-0.5047-1.8738-0.6368-2.2973c-4.058-15.4688-5.0841-22.8152-5.0841-39.2288
									c0-88.4467,90.818-186.9725,221.5096-186.9725c133.8907,0,210.5183,101.9223,230.3174,158.5837
									c-0.3964-1.065-0.7188-2.0131-1.0411-3.0121c-37.9855-110.8073-143.0449-190.451-266.8064-190.451
									c-155.6098,0-281.8398,126.1639-281.8398,281.9058c0,139.1732,100.3789,258.2905,239.645,258.2905
									c111.0175,0,185.6582-62.2425,219.8468-148.0659C703.8057,486.1199,690.5283,430.9821,647.8981,402.0297z"/>
							</g>
							<g>
								<path fill="#E4032E" d="M776.9269,339.8847c-16.5148-55.2771-93.6359-164.0562-232.0432-164.0562
									c-130.6916,0-221.5096,98.5257-221.5096,186.9725c0,16.4137,1.0261,23.76,5.0841,39.2288
									c-1.6987-6.7748-2.5655-13.5178-2.5655-20.1135c0-92.1394,92.2325-155.964,187.0576-155.964
									c128.399,0,232.4587,104.0636,232.4587,232.4085c0,100.6081-57.9127,187.7533-142.014,229.5826v0.0777
									c108.4559-39.2795,185.9034-143.1725,185.9034-265.1661C789.2984,393.9805,785.4274,368.5146,776.9269,339.8847z"/>
							</g>
						</g>
					</g>
				</g>
			</g>
		</g>
	</g>
	<g>
		<path fill="#575757" d="M1094.1833,370.5753c0,10.5742-2.1599,20.5487-6.4713,29.9346
			c-4.3184,9.3859-10.1448,17.6397-17.4778,24.7587c-11.2206,10.3574-23.9491,17.2652-38.1898,20.7148v58.5767h77.6737v31.0695
			H922.3297v-31.0695h74.7619v-58.2528c-15.3235-3.4496-28.5928-10.4644-39.8091-21.0387
			c-7.3386-7.119-13.1622-15.3728-17.4764-24.7587c-4.3184-9.3859-6.4727-19.3604-6.4727-29.9346
			c0-10.5715,2.1543-20.5515,6.4727-29.9374c4.3141-9.3859,10.1378-17.6397,17.4764-24.7587
			c7.1204-6.9022,15.5854-12.4047,25.4064-16.5077c9.8153-4.0945,20.2277-6.1474,31.2314-6.1474
			c11.0037,0,21.3597,2.0529,31.0695,6.1474c9.7097,4.103,18.1241,9.6055,25.2445,16.5077
			c7.333,7.119,13.1594,15.3728,17.4778,24.7587C1092.0234,350.0238,1094.1833,360.0039,1094.1833,370.5753z M1060.202,370.5753
			c0-6.2573-1.2446-12.1879-3.7228-17.8031c-2.4823-5.6068-5.7743-10.5686-9.8717-14.8857
			c-4.3184-4.0974-9.2788-7.3893-14.887-9.8731c-5.6139-2.4781-11.5458-3.72-17.8003-3.72c-6.2601,0-12.1921,1.2419-17.8002,3.72
			c-5.6138,2.4838-10.5743,5.7757-14.8885,9.8731c-4.1002,4.317-7.3922,9.2789-9.8702,14.8857
			c-2.4838,5.6152-3.7228,11.5458-3.7228,17.8031c0,6.2601,1.2391,12.1907,3.7228,17.7974
			c2.4781,5.6152,5.7701,10.5743,9.8702,14.8885c4.3142,4.1002,9.2747,7.395,14.8885,9.8703
			c5.6082,2.4837,11.5402,3.7228,17.8002,3.7228c6.2545,0,12.1864-1.2391,17.8003-3.7228
			c5.6082-2.4753,10.5686-5.7701,14.887-9.8703c4.0974-4.3142,7.3894-9.2733,9.8717-14.8885
			C1058.9574,382.766,1060.202,376.8354,1060.202,370.5753z M1132.0508,281.8951h34.9528v281.8922h-34.9528V281.8951z"/>
		<path fill="#575757" d="M1383.0392,424.621h34.3051v87.3849h83.1763v31.0695h-258.9147v-31.0695h60.845V424.621h34.3052v87.3849
			h46.2832V424.621z M1444.2065,462.8123V328.5007h-182.5349v-31.0695h217.4878v165.381H1444.2065z"/>
		<path fill="#575757" d="M1563.5701,460.2243h258.9161v31.0695h-111.9817v72.4936h-35.2766v-72.4936h-111.6578V460.2243z
			 M1618.9139,322.3505h148.2299V286.75h34.6289v135.6069h-217.4891V286.75h34.6304V322.3505z M1767.1438,352.7723h-148.2299v38.839
			h148.2299V352.7723z"/>
	</g>
</g>
</svg>
